/* XPM */
static char *_968f1e616fa46c2855396c4997093fe7MzXlxer7dKSiJUU[] = {
/* columns rows colors chars-per-pixel */
"30 30 4 1 ",
"  c #6487B2",
". c #A8CFFB",
"X c #E3E9E5",
"o c #E1EFF6",
/* pixels */
"..............................",
"...XXXX.XXX.X..XXX.X..X.oooo..",
"...X....X.X.X..X.X.XX.X.o..o..",
"...XXXX.X.X.X..X.X.X.X..o.o...",
"......X.X.X.X..X.X.X..X.o..o..",
"...XXXX.XXX.XX.XXX.X..X.oooo..",
"..............................",
"XXXXXXXXXXXXXXXXXXXXXXXXXXXXXX",
"XXXXXXXXXXXXXXXXXXXXXXXXXXXXXX",
"XXXXXXXXXXXXXXXXXXXXXXXXXXXXXX",
"XXXXXXXXXXXXXXXXXXXXXXXXXXXXXX",
"XXXXXXXXXXXXXXXXXXXXXXXXXXXXXX",
"XXXXXXXXXXXXXXXXXXXXXXXXXXXXXX",
"XXXXXXXXXXXXXXXXXXXXXXXXXXXXXX",
"XXXXXXXXXXXXXXXXXXXXXXXXXXXXXX",
"XXXXXXXXXXXXXXXXXXXXXXXXXXXXXX",
"XXXXXXXXXXXXXXXXXXXXXXXXXXXXXX",
"XXXXXXXXXXXXXXXXXXXXXXXXXXXXXX",
"XXXXXXXXXXXXXXXXXXXXXXXXXXXXXX",
"XXXXXXXXXXXXXXXXXXXXXXXXXXXXXX",
"XXXXXXXXXXXXXXXXXXXXXXXXXXXXXX",
"XXXXXXXXXXXXXXXXXXXXXXXXXXXXXX",
"XXXXXXXXXXXXXXXXXXXXXXXXXXXXXX",
"..............................",
"..............................",
"... ..... ..... ..... ..... ..",
".. . ... . ... . ... . ... . .",
". ... . ... . ... . ... . ... ",
" ..... ..... ..... ..... .....",
".............................."
};
