/* XPM */
static char *_d148d3e84c6424aa38831c870298b8fod2EGOG491nfPDtF[] = {
/* columns rows colors chars-per-pixel */
"64 64 109 2 ",
"   c #020202",
".  c #060606",
"X  c #0C040F",
"o  c gray3",
"O  c gray5",
"+  c #090412",
"@  c #0E071B",
"#  c #010B1E",
"$  c #130616",
"%  c #160716",
"&  c #1B071E",
"*  c #1B091F",
"=  c #0F1119",
"-  c gray7",
";  c gray8",
":  c #14101E",
">  c #1B1B1B",
",  c #1D1D1D",
"<  c #270917",
"1  c #2B0C1F",
"2  c #1B0920",
"3  c #1C0920",
"4  c #02112C",
"5  c #141420",
"6  c #1B1226",
"7  c #161925",
"8  c #1E1E2F",
"9  c #03193F",
"0  c #250C27",
"q  c #250C28",
"w  c #260B2C",
"e  c #270C2D",
"r  c #280D2D",
"t  c #370E23",
"y  c #2F112E",
"u  c #25192C",
"i  c #300F33",
"p  c #310F34",
"a  c #281937",
"s  c #291C3A",
"d  c #291F3C",
"f  c #371139",
"g  c #381139",
"h  c #38103F",
"j  c #272727",
"k  c #2A2A2A",
"l  c #202535",
"z  c #282B33",
"x  c #2A223E",
"c  c gray24",
"v  c #101A43",
"b  c #1A1A46",
"n  c #3A1341",
"m  c #3B1443",
"M  c #3F1344",
"N  c #3F1545",
"B  c #391049",
"V  c #2A2641",
"C  c #2C2B44",
"Z  c #3B234D",
"A  c #2E354C",
"S  c #3A3E4A",
"D  c #3B2952",
"F  c #3C2953",
"G  c #3C2D56",
"H  c #3D3259",
"J  c #3F3E62",
"K  c #441742",
"L  c #401546",
"P  c #441547",
"I  c #441943",
"U  c #471B45",
"Y  c #441548",
"T  c #48174B",
"R  c #43125B",
"E  c #48135E",
"W  c #462E59",
"Q  c #423059",
"!  c #62225F",
"~  c #483660",
"^  c #443A61",
"/  c #622360",
"(  c #622461",
")  c #652075",
"_  c gray34",
"`  c #46466C",
"'  c #4A4169",
"]  c #424C6E",
"[  c #534066",
"{  c #535A6B",
"}  c #5C5173",
"|  c gray49",
" . c #C42430",
".. c #EB323B",
"X. c #EC323A",
"o. c #EA323C",
"O. c #686684",
"+. c #7A09FA",
"@. c #93388F",
"#. c #78819A",
"$. c gray52",
"%. c #908991",
"&. c #98A0B5",
"*. c #B2B2B2",
"=. c #B4B4B4",
"-. c #FAB8BA",
";. c #E5E0E6",
":. c #FDE4E5",
">. c white",
/* pixels */
"c c c c c c c c c c c c c c c c c c c c c c c c c c c c c c c c c c c c c c c c c c c c c c c c c c c c c c c c c c c c c c c c ",
"c >.c c c c c c c c c c c c >.c c c c c c c c c c c c c c >.c c c c c c c c c c c c c c c c >.c c c c c c c c c c c c c c c >.c ",
"c c j j j j j j j j j j j j j j j j j j j j j j j j j j j j j j j j j j j j j j j j j j j j j j j j j j j j j j j j j j j j c c ",
"c c j =.=.=.=.=.=.=.=.=.=.=.=.=.=.=.=.=.=.=.=.=.=.=.=.=.=.=.=.=.=.=.=.=.=.=.=.=.=.=.=.=.=.=.=.=.=.=.=.=.=.=.=.=.=.=.=.=.=.j c c ",
"c c j =.] ] ] ] ] ] ] ] ] ] ] ] ] ] ] ] ] ] ] ] ] ] ] ] ] ] ] ] ] ] ] ] ] ] ] ] ] ] ] ] ] ] ] ] ] ] ] ] ] ] ] ] ] ] ] ] =.j c c ",
"c c j =.] ] ] ] ] ] ] ] ] ] ] ] ] ] ] ] ] ] ] ] ] ] ] J H H J ] ] ] ] ] ] ] ] ] ] ] ] ] ] ] ] ] ] ] ] ] ] ] ] ] ] ] ] ] =.j c c ",
"c c j =.] ] ] ] ] ] ] J J J ~ ^ ] ] ] ] ] ] ] ] ] ] J H n m n n ;.J ] ] ] ] ] ] ] ] ] ] ] ] ] ] ] ] ] ] ] ] ] ] ] ] ] ] =.j c c ",
"c c j =.] ] ] ] ] J W Q n n n ( ( H ] ] ] ] ] ] ] ] H m r r A r r m m ] ] ] ] ] ] ] ] ] ] ] ] ] ] ] ] ] ] ] ] ] ] ] ] ] =.j c c ",
"c c j =.] ] ] >.H H L ( ( n n n n n Y J ] ] ] ] ] ] H m A ] ] J r n m ] ] ] ] ] ] ] ] ] ] ] ] ] ] >.] ] ] ] ] ] ] ] ] ] =.j c c ",
"c >.j =.] ] ] H ] r r ( m r r r r n N ( n ] ] ] ] ] J m ] ] ] ] r n m ] ] ] ] ] ] ] ] ] ] ] ] ] ] ] ] ] ] ] ] ] ] ] ] ] =.j c c ",
"c c j =.] ] x 8 r J m m r A A A A r n ( n m ] ] ] ] ] m ] ] ] ] C n m ] ] ] ] ] ] ] ] ] ] ] ] ] ] ] ] ] ] ] ] ] ] ] ] ] =.j c c ",
"c c j =.] J s r n m m ] ] J J ] ] A n n n n ] ] #.] ] ] ] ] ] ] C m m ] ] ] ] ] ] ] ] ] ] ] ] ] ] ] ] ] ] ] ] ] ] ] ] ] =.j >.c ",
"c c j =.] x P L n m ] ] J Q N n J ] A n P m m ] ] ] ] ] ] ] ] ] C m H m ] ] ] H Q H J ^ ] ] ] ] ] ] ] ] ] ] ] ] ] ] ] ] =.j c c ",
"c c j =.J x n ( ( m ] ] J Y ( ( n m ] J n / m ] ] ] ] #.] ] ] ] J m F m ] ] ] H m ( n n ( J ] ] ] ] ] ] ] ] ] ] ] ] ] ] =.j c c ",
"c c j =.J r r n m ] ] ] H m ( r r r A J n m ( ] ] ] ] ] ] ] ] ] J m F m ] ] H H m m m n n m m ] >.] ] ] ] ] ] ] ] ] ] ] =.j c c ",
"c c j =.x r n m m ] ] ] J n L ] A ] ] J n n m ] ] ] ] ] ] ] ] ] J n J m ] ] H m r r r r r n N m ] ] ] ] ] ] ] ] ] >.] ] =.j c c ",
"c c j =.s r n m ] ] ] ] ] n n ( ] ] ] J N Y m #.] ] ] ] ] ] ] J G n m r ] J J m A A A A r r n ( m ] ] ] ] ] ] ] ] ] ] ] =.j c c ",
"c c j =.x r m r ] ] ] ] ] J m m J J J H n ( ( ] ] ] ] ] ] ] ] J n r m r ] J n m A ] ] ] A C m n m ] ] ] ] ] ] ] ] ] ] ] =.j c c ",
"c >.j =.J i m r ] ] ] ] ] ] m m L L n n m r r ] ] ] ] m m r r r r r r r A ] n m A J ] ] ] ] m n m m ] ] ] ] ] ] ] ] ] ] =.j c c ",
"c c j =.J r ( r ] ] ] ] ] ] ] r n ( ( r r A ] ] #.L R m m E m L r r S l ] ] J m m H m ] ] ] J N m m ] ] ] ] ] ] ] ] ] ] =.j >.c ",
"c c j =.J r m r ] ] >.] ] ] ] A A r r r A ] ] ] m m ( +.m m +.Y / m m ] ] ] ] m m m m ] #.] J n ( m ] ] ] ] ] ] ] ] ] ] =.j c c ",
"c c j =.J r m r ] ] ] ] ] ] #.] ] ] ] ] ] J ` m m r r ( m m n m ( % 3 m ] #.] ] ] ] ] ] ] ] J n n m ] ] ] ] ] ] ] ] ] ] =.j c c ",
"c c j =.] r m r ] ] ] ] ] ] ] ] ] ] ] ] ] J m ( L m X * n m n 3 3 R m m ] ] #.] ] ] ] ] ] ] J n n m ] ] ] ] ] ] ] ] ] ] =.j c c ",
"c c j =.] C m 3 ] ] ] ] ] ] ] ] ] ] ] ] J ] m m m ( m 3 X $ % $ 3 m +.L m #.] ] ] ] ] ] ] ] J N n m ] ] ] ] ] ] ] ] ] ] =.j c c ",
"c c j =.] J 3 r A ] ] ] ] ] ] ] ] ] ] ] J L m m m m m y # X # I m m m m ( ] ] #.] ] ] ] ] ] J n ( m ] ] ] ] ] ] >.] ] ] =.j c c ",
"c c j =.] ] r r r ] ] ] ] ] ] ] #.] ] J J m ( m m m ( 9 @.U @.9 ( L m m m R ] ] ] ] ] ] ] ] H n n m ] ] ] ] ] ] ] ] ] ] =.j c c ",
"c c j =.] ] C r n r ] ] ] ] ] ] ] ] J J m m R L m m ( 9  .9  .9 ( m ) m m n +.] #.] ] ] ] J D n m m ] ] ] ] ] ] ] ] ] ] =.j c c ",
"c c j =.] ] ] 3 n r r J J ' ' ` ] ] H n r m m +.( m ( 9  . . .9 B m m +.L n h n ] ] ] O.H D n m m ] ] ] ] ] ] ] ] ] ] ] =.j c c ",
"c c j =.] ] ] 8 m n p r r M ( ! / D F n r m m m L m r I 9 9 4 y r +.m m R ( n n h } H D m m m m ] ] ] ] ] ] ] ] ] ] ] ] =.j c c ",
"c >.j =.] ] ] ] 3 m n ( r n ( n ( ( n r m r L m m ( m r y I I 3 r L m L m +.m r r r r r m r r A ] ] ] ] ] ] ] ] ] ] ] ] =.j >.c ",
"c c j =.] ] ] ] 8 r C n n n n n n h n 3 m r m ( m L m L p r g f m L ( m ( m r 7 3 r m r r l *.J H H H H ] ] ] ] ] ] ] ] =.j c c ",
"c c j =.] ] ] ] ] r m r * e e e e & n 3 r r L m L m ( L ( ( m / ( m ( m m m r l A A A A l l ] ] r r m n n ] ] ] ] ] ] ] =.j c c ",
"c c j =.] ] ] ] ] ] ] r 2 $ & e * $ r r $ r 3 ( m ! Y m ( 9 9 9 / R m m r r 3 l ] H ] ] ] ] ] ] ] A A { r m ] ] ] ] ] ] =.j c c ",
"c c j =.] ] ] ] ] ] ] ] r r 2 $ 3 $ $ 3 X 3 3 m m T / ( 9 $.*.$.v ( +.r r r $ A #.Z m ] J H H H O.] ] ] ] n m ] ] ] ] ] =.j c c ",
"c c j =.] ] >.] ] ] ] ] ] ] ] r A C l l 3 $ 3 3 r L I I 9 >.>.*.9 / m r m r 3 ] J G m ] C r m n n m ] ] ] H m ] ] ] ] ] =.j c c ",
"c c j =.] ] ] ] ] ] ] ] ] ] ] ] ] H m ] r 3 r $ 3 f ( 9 $.*.@ >.$.v ( r r 3 3 J J n m ] A r r A n n m ] ] H n ] ] ] ] ] =.j c c ",
"c c j =.] ] ] ] J J J J J O.] ] ] J n ] r $ $ 3 r g K 9 -.1 < + >.b ( r 3 3 r J n m m ] ] ] ] ] ] n m ] ] J n m ] ] ] ] =.j c c ",
"c c j =.] ] ] J ] n n n n n m ] ] J m n ] r 3 3 3 p ( I :.o...o.*.b ( 3 r $ A F n m ] ] ] ] ] ] #.] m m ] J N m ] ] ] ] =.j c c ",
"c c j =.] ] J ] n ] m m r m n ] ] J m ] r r 3 r r q y 9 >.o...o.>.9 ( $ * & F ] m m ] ] #.] ] ] ] J J m ] J n ( ] ] ] ] =.j >.c ",
"c c j =.] ] J n J r A A A r m m ] ] m m H r r 3 3 3 y ( $.>.....$.9 3 r e r r m ] ] ] ] ] ] ] ] ] J n m J J m n m ] ] ] =.j c c ",
"c c j =.] J A n m r ] ] ] #.m m ] ] ] m m r r r 3 $ 3 y 9 *.*...o.r r r w e r m ] ] ] ] ] ] ] ] ] J M m J m m J m ] ] ] =.j c c ",
"c >.j =.] J r 8 r ] ] ] ] ] ] ] ] ] J 8 m A r r r $ $ X 4 $.| $.....r r & n r m O.O.] ] ] ] ] ] J J n ( C m J ] m ] ] ] =.j c c ",
"c c j =.] J r C m ] ] ] ] ] ] &.] J x 3 m r A m r r 3 $ r # 4 # 3 o.o.2 $ r $ r n n n J J J J J J n n r r n J r ] ] ] ] =.j c c ",
"c c j =.] C r r r ] ] ] ] ] ] J J J $ 3 m ] ] r r 3 3 3 2 r X $ $ r ..2 r * 3 * r 3 r n n n w r n w 2 w n J r r ] ] ] ] =.j c c ",
"c c j =.] C 3 C r ] ] ] ] ] J O.r * $ m ] ] ] ] r * r 3 & $ $ $ 2 r t ..r r 3 $ 3 m r * n r r r r r w n m r r ] ] ] ] ] =.j c c ",
"c c j =.] J r A r r J J J J C 3 X $ r m A ] ] ] ] & r r w 2 * $ & r ] ..X.r r 5 z X r 3 3 3 $ r r w F r r ] ] ] ] ] ] ] =.j c c ",
"c c j =.] ] 3 3 %.r 3 3 r 3 r 3 : ] m A ] ] #.] ] 6 r r $ 3 3 r 3 n ] ] o.o.r * * 5 l l l C V d Z s r r ] ] ] ] ] ] ] ] =.j c c ",
"c c j =.] ] A r 3 r 8 8 8 5 5 & n m A A ] ] #.] D H r & A m r m m r r ] ] ] ] ] r r r C 8 8 3 r r r r r ] ] ] ] ] ] ] ] =.j c c ",
"c c j =.] ] ] A A l 3 r r 3 n r r r A ] ] ] ] J u r r m r A $ r r J r A ] ] ] ] A r r r r r r r r A A ] ] ] ] ] ] ] ] ] =.j >.c ",
"c c j =.] ] ] ] ] A A A A C J m r ] ] ] ] ] J a 2 r m r A ] C r 3 * m m ] ] ] ] ] ] ] ] ] ] ] ] ] H J ] ] ] ] ] ] ] ] ] =.j c c ",
"c c j =.] ] ] ] ] ] ] ] ] J n m ] ] ] ] ] J [ 3 r r r { ] ] A r r r 0 P J ] ] ] ] ] ] ] ] ] ] ] ] x r m ] ] ] ] ] ] ] ] =.j c c ",
"c c j =.] ] ] ] ] ] ] ] ] C r m ] ] ] ] H H 3 3 m r r ] ] ] ] ] r n r ( ( m ] ] ] ] ] ] H H J ] J V r ] ] ] ] ] ] ] ] ] =.j c c ",
"c c j =.] ] ] ] ] ] ] ] ] H r r x C J H D 3 3 m r r ] ] ] ] ] ] A A r r n * r F J J J x a r r n x r m ] ] ] ] >.] ] ] ] =.j c c ",
"c >.j =.] ] ] ] ] ] ] ] ] ] m n m r r r 3 3 m r r ] ] ] ] ] ] ] ] ] ] A r r * * i r r r r r r s r m ] ] ] ] ] ] ] ] ] ] =.j c c ",
"c c j =.] ] ] ] ] ] ] ] ] ] ] m m m r r r m r r ] ] ] ] ] ] ] ] ] ] ] ] ] A r 3 r ( r r n F H m m ] ] ] ] ] ] ] ] ] ] ] =.j c c ",
"c c j =.] ] ] ] ] >.] ] ] ] ] J r A A C 8 A r ] ] ] ] ] ] ] ] ] ] ] ] ] ] ] ] ] r r r r r r m m ] ] ] ] ] ] ] ] ] ] ] ] =.j c c ",
"c c j =.] ] ] ] ] ] ] ] ] ] ] ] m r C A 3 r A ] ] ] ] ] ] ] ] ] ] ] ] ] ] ] ] ] ] m m ] ] ] ] ] ] ] ] ] ] ] ] >.] ] ] ] =.j >.c ",
"c c j =.] ] ] ] ] ] ] ] ] ] ] ] ] ] m m ] ] A A A A l l l l 7 7 7 7 7 7 7 l l l l l A A ] ] ] ] ] ] ] ] ] ] ] ] ] ] ] ] =.j c c ",
"c c j =.] ] ] ] ] ] ] ] ] ] ] ] ] ] l A l = 7 7 7 = 7 7 7 7 7 7 7 7 = 7 = 7 l l l l l l l l l l l A A ] ] ] ] ] ] ] ] ] =.j c c ",
"c c j =.] ] ] ] ] ] ] ] A A A l l l = = = l l l l l 7 7 = = = = = = 7 = = = . = = = 7 A A l l l l l A A A A A A A ] ] ] =.j c c ",
"c c j =.=.=.=.=.=.| | | | _ c _ c c k c k k - O o . . . . . . . . o o . . . . . o o o O - - - , _ _ _ _ c _ | =.| | =.=.=.j c c ",
"c c j j j j j j - - - o O o O > O O O O O O o .                           . . . . o o .           . o o o - - j j > j j j j c c ",
"c >.c c c c c c c k O c O ; ; , , ; ; , O . . k o o o o . . . . . . - . . . . O O o . . k O ; , , ; ; c k k *.k k c c c c c >.c ",
"c c c c c c c c c c c , , ; ; ; ; ; o o o ; ; , , , , ; ; , , , , k k k k k k , , , , ; ; ; ; , , , ; ; , , c c c c c c c c c c "
};
