/* XPM */
static char *ac856ab3b67e488bd6e9aa31057a77a5uyb7N8B2NOHBRwhW[] = {
/* columns rows colors chars-per-pixel */
"64 64 205 2 ",
"   c black",
".  c #1F2E13",
"X  c #061A29",
"o  c #171928",
"O  c #131F30",
"+  c #0E273D",
"@  c #102337",
"#  c #1C303F",
"$  c #22313C",
"%  c #2C3338",
"&  c #343434",
"*  c #385322",
"=  c #384A3D",
"-  c #49583D",
";  c #4C702E",
":  c #0C2E44",
">  c #132F42",
",  c #182F40",
"<  c #0E3247",
"1  c #13344B",
"2  c #193848",
"3  c #18384F",
"4  c #1D3C52",
"5  c #233B4B",
"6  c #293D4C",
"7  c #203E54",
"8  c #154548",
"9  c #134C4C",
"0  c #1D534C",
"q  c #2B464C",
"w  c #374E45",
"e  c #30414D",
"r  c #3A464F",
"t  c #205F4C",
"y  c #34564F",
"u  c #39584E",
"i  c #254358",
"p  c #2B475D",
"a  c #2C485C",
"s  c #3A4750",
"d  c #395C55",
"f  c #1F6448",
"g  c #21644D",
"h  c #247249",
"j  c #2C774E",
"k  c #38704F",
"l  c #396455",
"z  c #396D55",
"x  c #344F62",
"c  c #3E5769",
"v  c #43594E",
"b  c #464D52",
"n  c #555555",
"m  c #45764E",
"M  c #587545",
"N  c #42635B",
"B  c #47695B",
"V  c #48685F",
"C  c #536754",
"Z  c #467952",
"A  c #567655",
"S  c #547758",
"D  c #557859",
"F  c #5B7D5E",
"G  c #637257",
"H  c #4D6C63",
"J  c #547167",
"K  c #547169",
"L  c #5C786E",
"P  c #4B6272",
"I  c #5B6F7D",
"U  c #577174",
"Y  c #5C8838",
"T  c #2B834A",
"R  c #36864E",
"E  c #3A824D",
"W  c #3D924E",
"Q  c #33984B",
"!  c #3BA14C",
"~  c #448256",
"^  c #478D53",
"/  c #578959",
"(  c #598C5D",
")  c #579856",
"_  c #6D924C",
"`  c #618256",
"'  c #6E8A59",
"]  c #639659",
"[  c #6E925F",
"{  c #71925F",
"}  c #769C5A",
"|  c #41A74D",
" . c #44AB4D",
".. c #4AAB4F",
"X. c #4DB14F",
"o. c #55AD51",
"O. c #59B652",
"+. c #6EAA4A",
"@. c #69A359",
"#. c #78AA55",
"$. c #7EAB5A",
"%. c #64BF54",
"&. c #6BB65B",
"*. c #76B659",
"=. c #7CB45E",
"-. c #638464",
";. c #6B8B6B",
":. c #6D9161",
">. c #6F9C63",
",. c #779B68",
"<. c #668074",
"1. c #738B7E",
"2. c #789774",
"3. c #75A663",
"4. c #7CB463",
"5. c #5AC54F",
"6. c #5AC450",
"7. c #67C753",
"8. c #77C857",
"9. c #7CC15A",
"0. c #73D156",
"q. c #7AD457",
"w. c #72D058",
"e. c #7AD558",
"r. c #7DCD68",
"t. c #91A95F",
"y. c #80B753",
"u. c #84B75C",
"i. c #83A768",
"p. c #87B367",
"a. c #93B668",
"s. c #94BB6B",
"d. c #8BAC74",
"f. c #95B47C",
"g. c #86C659",
"h. c #89C05C",
"j. c #90CD5D",
"k. c #86D45A",
"l. c #82D95A",
"z. c #8DDF5C",
"x. c #92D45C",
"c. c #9AE65F",
"v. c #88C766",
"b. c #8DCC61",
"n. c #9AC86A",
"m. c #8DD56E",
"M. c #97D96A",
"N. c #96D578",
"B. c #A3CC6F",
"V. c #A7D370",
"C. c #A8DF7B",
"Z. c #A4EA65",
"A. c #A1E36B",
"S. c #ACE86C",
"D. c #A5E174",
"F. c #A9E975",
"G. c #A9E07C",
"H. c #B1EC77",
"J. c #BCF272",
"K. c #5B7282",
"L. c #6F7F8C",
"P. c #7B9884",
"I. c #6F8291",
"U. c #839889",
"Y. c #88949D",
"T. c #97AF91",
"R. c #A2BA8B",
"E. c #8798A4",
"W. c #8898A4",
"Q. c #9AB0A8",
"!. c #B0BDA8",
"~. c #A7AEB3",
"^. c #A7B3BC",
"/. c #95CE86",
"(. c #9ED682",
"). c #95DB81",
"_. c #9DCD93",
"`. c #ACC68D",
"'. c #ACDE83",
"]. c #A3D58A",
"[. c #B0DC8C",
"{. c #A8D395",
"}. c #B5D997",
"|. c #BCD398",
" X c #B5DA98",
".X c #A8E585",
"XX c #B3EC86",
"oX c #BCEE93",
"OX c #B7E99E",
"+X c #B1CEAC",
"@X c #AFD0A3",
"#X c #BCD7A6",
"$X c #B6E6AC",
"%X c #C4D3B8",
"&X c #C1ECAE",
"*X c #C4F0A0",
"=X c #CEF3B1",
"-X c #CECECE",
";X c #CECCD1",
":X c #CED5DA",
">X c #DBF6C5",
",X c #D6F1CF",
"<X c #EBFADF",
"1X c #FFF4F4",
"2X c white",
/* pixels */
"  n n n n n n n n G ' n n ' G n n n n n n n n n n n n n n n n n   n n n n n n n n & & & & & & & & & n n n n n n n n n n n n n   ",
"n 2X2X2X2X2X2X2X2X<X*X>X<X<X>X2X>X2X<X2X2X2X2X2X2X2X2X2X2X2X2X2X2X2X2X2X2X2X2X2X2X2X& & & & & & & 2X2X2X2X2X2X2X2X2X2X2X2X2X2Xn ",
"n 2X-X-X-X-X-X-X%X#X%X-X#X%X%X X X X}.%X-X-X-X~.-X-XY.~.-X-X-X-X-X-X-X~.-X~.Y.-X-X-X-X& & & & & & -X-X-X-X-X-X-X-X-X-X-X-X-X2Xn ",
"n 2X-X-X  -X-X-X X'.[.}.-XD. X}.#X#X#X%X%XP.P.Y.%X-X-XY.-X-X-X-X  Y.Y.-XY.~.-XY.-X-X-X-X& & & & -X-X-X-X-X-X-X-X-X-X-X  -X-X2Xn ",
"n 2X-X  n n G ' ' $.' h.G u.} u.G } j.n C C 6 q q b b b b r n n n r 6 r 6 n e r s e n n & & & & n n n n n n n n n n n n   -X2Xn ",
"n 2X-X-Xn   #X'.[.'.G.'.A.[.[.D.%X X[.2.K ~.%XL.Y.Y.P -XY.Y.~.~.X Y.-X~.P ~.L.L.L.-X-X-X-X& & & -X-X-X-X-X-X-X-X-X-X  n -X-X2Xn ",
"n 2X-X-Xn %X#X%X#X XG.'.C. XG.A.[. X2.T.#X~.%X}.-XP Y.~.-X-X-X-XL.-X-X~.L.L.Y.Y.I Y.Y.-X-X& & & -X-X-X-X-X-X-X-X-X-X-Xn -X-X2Xn ",
"n 2X-X-Xn C.}.XXH.oXA.<XXXc.oX*X>X*X<X>XQ.+X^.P.Q.2X2XW.^.:X:XW.:XI.W.E.^.I.2X:X^.2X:X2X2X& & & 2X2X2X2X2X2X2X2X2X-X-Xn -X-X2Xn ",
"n 2X-X-X' #X}.oX' x.} x.$.c.h.c.h.Z h.G C v n C e v e b 6 6 b 5 e e 6 5 s n n r b 6 r n n n & & n n n n n n n n 2X-X-Xn -X-X2Xn ",
"n 2X-X-X$.[.#X*Xu.A. XC.{.z.z.z.c.9.@.o O l T.L.I -XY.I L.L.L.L.P L.~.-XY.c I Y.I I ~.~.-X-X& & -X-X-X-X-X-X-Xn 2X-X-Xn -X-X2Xn ",
"n 2X-X%XG D.}.oXh.A.M.N.c.z.z.l.%.7.E O.~.M P.I Y.I I 4 L.Y.~.L.Y.Y.P ~.I L.P P Y.L.Y.~.-X& & -X-X-X-X-X-X-X-Xn 2X-X-Xn -X-X2Xn ",
"n 2X#X%X$.}.'.*X$.'.N.c.z.z.7.q.....o.) @.U 2 L.x 4 a L.L.c ~.Y.L.L.I L.L.~.Y.Y.L.Y.~.-X-X& & -X-X-X-X-X-X-X-Xn 2X-X-Xn -X-X2Xn ",
"n 2X%X[.$.#X'.F.} }.M.l.z.l.7.%.Q q.7.j 9.9.P.+ a P 4 P c L.Y.a Y.L.c L.i Y.a I P L.L.~.-X& -X-X-X-X-X-X-X-X-Xn 2X-X-Xn -X-X2Xn ",
"n >X[.[.u.D.[.*Xj.[.z.z.c.O.%.0.l.0.t g t k l o 2.P c x P a L.L.I L.P ~.P P ~.a I ~.Y.-X& & -X-X1X-X-X1X-X-X-Xn 2X-X-Xn -X-X2Xn ",
"n *X[. X} [.}.*Xg.c.c.c.c.7.%.7.5.6.g 8 >.b.Z V ' J T.a x L.I L.L.L.~.~.L.Y.I Y.Y.-XY.Y.& & &   n   -X-X-X-X-Xn 2X-X-Xn -X-X2Xn ",
"' *X#XA.u.D.'.>X8.q.w.z...X.6.5.5.9 R t s.B.B f : d.N a a L.x P I Y.I -XL.Y.~.L.-X~.Y.~.$ & & -X2X-X  -X-X-X-Xn 2X-X-Xn -X-X2Xn ",
"Y *X[.+.G x.'.*Xx.c.z.z...Q 5.5.5.9 R 9 / =.S >.w ;.!.<.1.I P L.~.I L.I P -X~.~.Y.L.-X$ % & n 2X  2Xn 1X-X-X-Xn 2X-X  n   -X2X  ",
"$.*XA.%Xh.C.M.oXc.z.z.k...5.5.j 9 R ~ ] / / n.Z 2.' R.2.d.c L.P c Y.L.I Y.L.~.~.-X-XY.$ & -X  -X2X-X  -X-X-X-Xn 2X-X-Xn -X-X2Xn ",
"u.*XA.[.$.D.(.M.z.c.l.6.X.5.5.9 g j g 9 z z @.] 8 = 2.f.:.4 a I c ~.I L.~.Y.~.~.-XI Y.& & -X-X  n   -X-X-X-X-Xn 2X-X-Xn -X-X2Xn ",
"h.oXD.[.$.}.r.D.c.z.z.| 5.5.j W j z 9 ( 9 9 M.=.z w J 2.J V i c a c L.Y.I I L.~.Y.~.L.% $ ;X-X-X1X-X-X1X-X-X-Xn 2X-X-Xn -X-X2Xn ",
"h.=X[.'.$.N.N.l.q.z.c.| 5.5.R g 9 z ( 3.( :.b.@.) P w <.1 4 c L.i L.Y.L.Y.L.~.-X~.Y.$ $ ~.~.-X-X-X-X-X-X-X-X-Xn 2X-X-Xn -X-X2Xn ",
"' <X-X X@.[.(.z.c.c.%.X.5.g 9 g 9 9 ( z S S y Z.=.0 w R.c 4 4 I P c L.Y.Y.~.-X-XI L.I $ $ -X-X-X-X-X-X-X-X-X-Xn 2X-X-Xn -X-X2Xn ",
"} <X#X#X' m.N.z.z.q.| 5.5.g 9 9 9 9 9 S : S :.c.b.p.= f.f.Y.P P P a Y.x L.Y.Y.Y.I ~.-X& & -X-X-X-X-X-X-X-X-X-Xn 2X-X-Xn -X-X2Xn ",
"G <X#X[.g.N.l.l.z.q.X.5.6.W 9 W 9 9 z : :.:.S @.c.~ A 1.x P a 7 i L.4 I P L.~.L.L.P ~.-X& ~.-X-X-X-X-X-X-X-X-Xn 2X-X-Xn -X-X2Xn ",
"G *X%X-X' ].z.z.l.e.| 5.9 j g | 9 9 : y y S y Z.@.^ o c a L.I x 4 c P 3 x Y.L.~.-X-XY.& & ~.Y.-X-X-X-X-X-X-X-Xn 2X-X-Xn -X-X2Xn ",
"' 2X#X X@./.z.z.0.l. .5.R j j W 9 9 : : : y : c.v.~ o c 7 4 i 1 3 1 1 i x P P L.I c Y.$ $ ~.-X-X-X-X-X-X-X-X-Xn 2X-X-Xn -X-X2Xn ",
"G <X%X@X` c.l.l.z.| | 5.R g g 9 9 : : : : : : c.b.f 1.A c 3 4 V i c c x 7 c ~.P ~.Y.-X$ % -XY.-X-X-X-X-X-X-X-Xn 2X-X-Xn -X-X2Xn ",
"& _ %X%XC z.7.l.z.| 5.5.5.R j 9 9 : : : : : : y Z.[ < + L -.J d c x i a a c L.I Y.-XY.& # I Y.-X-X-X-X-X-X-X-Xn 2X-X-Xn -X-X2Xn ",
"& - ` @X` z.z.l.0.| 5.5.5.R 9 9 9 : : : : : S : c./ k y U.i.3 N 1 3 i c c 4 ~.Y.Y.Y.~.Y.% -X-X-X-X-X-X-X-X-X-Xn 2X-X-Xn -X-X2Xn ",
"- _ M _.] c.c.c.z...5.6.6.R 9 9 9 : : : : : :.:.S.@.T = i.c L 4 L 1 1 4 i 3 P c I ~.I Y.% & -X-X-X-X-X-X-X-X-Xn 2X-X-Xn -X-X2Xn ",
"- _ g.+.- c.c.c.l.! 5.5.6.j 9 9 9 : : : : y A y b.M.4.A :.i -.1 x 3 3 p 4 I c ~.I Y.Y.~.~.& -X-X-X-X-X-X-X-X-Xn 2X-X  n   -X2X  ",
"& - ` 9.c.l.q.z.l. .5.5.5.g 9 9 9 : : : : S y y Z.J.( O `.J D F 1 1 4 4 4 x L.-X-XL.L.Y.-X-X-X-X-X-X-X-X-X-X-Xn 2X-X-Xn -X-X2Xn ",
"#.#.#.M l.l.c.z.c...5.5.6.g 9 9 9 : : : : : S y Z.Z.( y i < 1 N :.7 4 c 7 x c ~.I Y.a -X~.-X-X-X-X-X-X-X-X-X-Xn 2X-X-Xn -X-X2Xn ",
"g.*.g.x.c.e.c.z.z. .5.| 6.9 9 9 9 : : : : y S y Z.9.h a.L L 1 :.d V i 1 a c p c ~.I L.~.-X~.-X-X-X-X-X-X-X-X-Xn 2X-X-Xn -X-X2Xn ",
"g.x._ M c.q.z.c.z.! 5.! 5.9 9 9 9 : : : : : y S S.p.&.' ,.i d <.4 1 x 3 3 a I I L.Y.-X~.~.-X-X~.~.-X-X-X-X-X-Xn 2X-X-Xn -X-X2Xn ",
"g.y.#.}.c.z.l.c.l.%.Q Q 5.9 9 9 9 : : : : : : [ J.M.] A ;.J ,.L 7 I < 1 i P x L.I L.~.~.~.-X-X~.-X~.-X-X-X-X-Xn 2X-X-Xn -X-X2Xn ",
"g.F.A.'.q.c.z.c.c.%.! Q 5.9 9 9 9 : : : : : S y J.S.) a.J ;.V <.J i Y.c 7 1 L.Y.Y.L.~.-X% -XY.Y.~.-X-X-X-X-X-Xn 2X-X-Xn -X-X2Xn ",
"} XX@XM.z.l.z.q.c... .Q 5.9 g 9 9 9 : : : : y t.c.@.0 A N -.x P d.i a 7 x I L.x L.~.& & ~.~.-X-X-X~.-X-X-X-X-Xn 2X-X-Xn -X-X2Xn ",
"} =XN.M.c.c.l.z.c.O.Q Q 5.g 9 9 9 9 : : : y y & c.9.T ' c I ,.N I 4 3 I c 3 I Y.P L.$ ~.-X-X~.-X-X~.-X-X-X-X-Xn 2X-X-Xn -X-X2Xn ",
"u.oX}.#Xz.c.z.z.z.! ! ! 5.g 9 9 9 9 : : : : : S =.Z.h @ H I F i V N c c ~.P -X~.I $ ~.L.~.-XY.-X~.-X-X-X-X-X-Xn 2X-X-Xn -X-X2Xn ",
"u.XX#Xm.c.z.l.l.c.| ! Q 5.9 9 9 9 9 : : : y S : p.9.v.@ 2.H V d J c Y.c Y.Y.Y.P % $ ~.~.Y.~.-X-X-X-X-X-X-X-X-Xn 2X-X-Xn -X-X2Xn ",
"} oXD.[.=.c.e.l.z.!  .! 5.5.9 9 9 9 : : : : S y @.=.h w , P H x N 4 4 P c ~.c # $ L.-XY.-X-X~.-X-X-X-X-X-X-X-Xn 2X-X-Xn -X-X2Xn ",
"G XXD.G.*.c.l.z.e.| ! ! 5.5.9 9 9 9 : : : : : y v.} ~ O V i.V P 4 4 4 P P Y.% # $ Y.I -X-X~.-X-X-X-X-X-X-X-X-Xn 2X-X-Xn -X-X2Xn ",
"} >X[.D.=._.l.c.e. . .| 5.5.9 9 9 9 : : : : : y @.9.3.: L.T.1.i x 4 i c x > # $ L.c L.-X~.I -X-X-X-X-X-X-X-X-Xn 2X-X-Xn -X-X2Xn ",
"$.*X@XN.` /.z.l.z.Q  .! 5.5.9 9 9 9 : : : : : : ] p.s.y H L `.i a 7 x i c > # ~.Y.Y.Y.-X-X~.-X-X-X-X-X-X-X-X-Xn 2X-X-Xn -X-X2Xn ",
"} *X#X}.' @Xz.l.z.z.! Q 5.5.g 9 9 9 : : : : : : ] B < J N 3 4 i a L.4 c c % > Y.~.L.-X~.-X-X-X-X-X-X-X-X-X-X-Xn 2X-X-Xn -X-X2Xn ",
"$.>X X{.}  X%Xz.l.z. .! 5.6.g 9 9 9 9 : : : : 9.=.) = < -.H 4 x 4 4 I x > $ > Y.L.Y.-X-X-XY.-X-X-X-X-X-X-X-X-Xn 2X-X-Xn -X-X2Xn ",
"u.*XM.].( N.{.l.l.c.! ! ! 5.9 9 9 9 9 : : y S Z./ 8 ' c 3 F F x x I i i : > $ c L.Y.I ~.-XY.;X-X-X1X-X-X1X-X-Xn 2X-X-Xn -X-X2Xn ",
"$.F.[.(.)  X#Xz.l.z.! Q Q 5.g 9 9 9 9 : : y y Z.9.( + N H 4 1 N 3 4 < 4 : , i P 4 I -X-X-X-X-X-X  n   -X-X-X-Xn 2X-X-Xn -X-X2Xn ",
"' XX[.{.] G.#Xz.c.c.! | ! 5.9 9 9 9 9 : : y S S.A.Z A :.2.d J f.3 3 : # > c x p L.c -X-X-X-X-X  -X2X-X  -X-X-Xn 2X-X-Xn -X-X2Xn ",
"} >XA.G.' (.'.2Xc.0.X.|  .5.j 9 9 9 9 9 : S s.@.9.1 w i 4 ,.N l : > : > , c 4 a P P Y.~.-X~.1Xn 2X  2Xn 1X-X-Xn 2X-X  n   -X2X  ",
"* =XG.; } * (.$Xq.l.e.| Q 5.5.9 g 9 9 9 y : y p.b.( L -.: V y : : > : > # a I x L.~.Y.-X~.Y.-X  -X2X-X  -X-X-Xn 2X-X-Xn -X-X2Xn ",
"G oX#X X$.[.m.=X*.c.c.Q | Q 5.j 9 9 g g y : 9.} Z @ 2.L V > A y : 3 x x P a P a I P L.Y.~.-X-X-X  n   -X-X-X-Xn 2X-X-Xn -X-X2Xn ",
"G oXG.[.u.-X].2X} z.q.Q X. .5.j 9 g j 9 z S s.=./ @ d.d.i.{ [ : 7 7 3 x Y.P L.~.P a Y.~.-X-X1X-X-X1X-X-X1X-X-Xn 2X-X-Xn -X-X2Xn ",
"' oX XG.G N.[..Xg.l.z...Q ! 5.R j 9 g ) ( 4.3.=.l x ;.S i.A u c 1 a P p a I L.P Y.Y.Y.Y.-X-X-X-X-X-X-X-X-X-X-Xn 2X-X-Xn -X-X2Xn ",
"G <X[.%X} [.#X).] c.e.q.| Q 5.5.9 9 4.j ~ ~ ] p.i.B.i.a.u [ d : 2 : 2 2 s 5 s e b s 6 b n n n n n n n n n n n n 2X-X-Xn -X-X2Xn ",
"u.<X#XD.' #XN.&XOX>Xz.e.%...7.5.g g 3.g ~ V.p.3.i.J ,.[ S S S f.i i P K.W.P :XI.x W.W.2X2X2X2X2X2X2X2X2X2X2X2X2X2X-X-Xn -X-X2Xn ",
"' 2X%X[.' }.N.'.].N.e.0.7.7.5.5.~ 9 3.9 >.n.#.l i.,.S [ S u |.-.4 c I c Y.L.Y.P ~.Y.-X-X-X-X-X-X-X-X-X-X-X-X-X-X-X-X-Xn -X-X2Xn ",
"G =X#X}.' . '.@X[. XD.e.0...! 5.0.) z l l b.3.y s.L y [ a.> d <.= x L.I I Y.I c -X-X-X-X-X-X-X-X-X-X-X-X-X-X-X-X-X-X  n -X-X2Xn ",
"n <X#X; G n ' ] 8.g.` ` z.O...7.0.5.j ] &.8 B.s.n.[ S S y u F 2 F 2 n 6 5 n n n n n n n n n n n n n n n n n n n n n n n   -X2Xn ",
"n 2X%X X* #X#X-X[.m.C.N.z.q.7.7.5.%.t @.j.v.F :.i.S : > y : H P X L.Y.L.-X-X-X-X-X-X-X-X-X-X-X-X-X-X-X-X-X-X-X-X-X-X-X  -X-X2Xn ",
"n 2X-X#X#X#X#X%X X[.{.].#Xz.z.Q 0.5.w.H.) B.u i.A { { [ u u -.N Y.P Y.-X~.-X-X-X-X-X-X-X-X-X-X-X-X-X-X-X-X-X-X-X-X-X-X-X-X-X2Xn ",
"n 2X2X<X=XoXoX*X=X>X=X>X=X,Xz.l.! g *.m m $ > u S { { V.{ S 4 I.:X2X2X2X2X2X2X2X2X2X2X2X2X2X2X2X2X2X2X2X2X2X2X2X2X2X2X2X2X2X2Xn ",
"  n n n ' G $.} ' G ' G G G C c.l.9.@.v $ u A i.y > u [ v y s.2 X b n n n n n n n n n n n n n n n n n n n n n n n n n n n n n   "
};
